<svg xmlns="http://www.w3.org/2000/svg" xmlns:xlink="http://www.w3.org/1999/xlink" version="1.1" width="1000" height="1000" viewBox="0 0 1000 1000" xml:space="preserve">
<desc>Created with Fabric.js 3.5.0</desc>
<defs>
</defs>
<rect x="0" y="0" width="100%" height="100%" fill="#f9f9f9"></rect>
<g transform="matrix(2.8409 0 0 2.8409 499.9985 499.9985)" id="832008"  >
<g style="" vector-effect="non-scaling-stroke"   >
		<g transform="matrix(1 0 0 1 0 0)" id="Layer_1"  >
<circle style="stroke: none; stroke-width: 1; stroke-dasharray: none; stroke-linecap: butt; stroke-dashoffset: 0; stroke-linejoin: miter; stroke-miterlimit: 4; is-custom-font: none; font-file-url: none; fill: none; fill-rule: nonzero; opacity: 1;"  cx="0" cy="0" r="160" />
</g>
		<g transform="matrix(1 0 0 1 -61.3691 -105.4178)" id="Layer_1"  >
<path style="stroke: none; stroke-width: 1; stroke-dasharray: none; stroke-linecap: butt; stroke-dashoffset: 0; stroke-linejoin: miter; stroke-miterlimit: 4; is-custom-font: none; font-file-url: none; fill: rgb(192,192,192); fill-rule: nonzero; opacity: 1;"  transform=" translate(-98.6308, -54.5823)" d="M 90.41829 46.56813 l 5.40956 -3.12228 c 3.66372 6.36569 7.30721 12.69624 11.01555 19.13948 l -5.40783 3.1334 Z" stroke-linecap="round" />
</g>
		<g transform="matrix(1 0 0 1 -107.284 -59.3867)" id="Layer_1"  >
<path style="stroke: none; stroke-width: 1; stroke-dasharray: none; stroke-linecap: butt; stroke-dashoffset: 0; stroke-linejoin: miter; stroke-miterlimit: 4; is-custom-font: none; font-file-url: none; fill: rgb(192,192,192); fill-rule: nonzero; opacity: 1;"  transform=" translate(-52.716, -100.6133)" d="M 63.82572 103.36729 L 60.74883 108.796 L 41.60629 97.8415 L 44.69 92.43065 C 51.07971 96.08258 57.38641 99.68705 63.82572 103.36729 Z" stroke-linecap="round" />
</g>
		<g transform="matrix(1 0 0 1 -61.3424 109.4642)" id="Layer_1"  >
<path style="stroke: none; stroke-width: 1; stroke-dasharray: none; stroke-linecap: butt; stroke-dashoffset: 0; stroke-linejoin: miter; stroke-miterlimit: 4; is-custom-font: none; font-file-url: none; fill: rgb(192,192,192); fill-rule: nonzero; opacity: 1;"  transform=" translate(-98.6576, -269.4642)" d="M 101.45571 258.35751 c 1.88379 1.08545 3.5949 2.0714 5.41266 3.11878 c -3.66 6.36731 -7.2817 12.66808 -10.97572 19.09463 l -5.44582 -3.043 C 94.12876 271.1164 97.76594 264.78275 101.45571 258.35751 Z" stroke-linecap="round" />
</g>
		<g transform="matrix(1 0 0 1 62.3569 -105.1886)" id="Layer_1"  >
<path style="stroke: none; stroke-width: 1; stroke-dasharray: none; stroke-linecap: butt; stroke-dashoffset: 0; stroke-linejoin: miter; stroke-miterlimit: 4; is-custom-font: none; font-file-url: none; fill: rgb(192,192,192); fill-rule: nonzero; opacity: 1;"  transform=" translate(-222.3569, -54.8114)" d="M 225.17634 43.69783 c 1.84207 1.05807 3.55478 2.04183 5.40949 3.10718 l -11.08332 19.12 l -5.37464 -3.1643 C 217.80213 56.42121 221.46346 50.104 225.17634 43.69783 Z" stroke-linecap="round" />
</g>
		<g transform="matrix(1 0 0 1 107.597 63.8815)" id="Layer_1"  >
<path style="stroke: none; stroke-width: 1; stroke-dasharray: none; stroke-linecap: butt; stroke-dashoffset: 0; stroke-linejoin: miter; stroke-miterlimit: 4; is-custom-font: none; font-file-url: none; fill: rgb(192,192,192); fill-rule: nonzero; opacity: 1;"  transform=" translate(-267.597, -223.8815)" d="M 275.58741 232.09351 c -6.436 -3.71452 -12.7328 -7.34863 -19.12046 -11.03525 c 1.07107 -1.82437 2.0849 -3.55131 3.16364 -5.38875 l 19.09655 11.025 C 277.67729 228.49981 276.67215 230.22819 275.58741 232.09351 Z" stroke-linecap="round" />
</g>
		<g transform="matrix(1 0 0 1 -106.7355 64.3561)" id="Layer_1"  >
<path style="stroke: none; stroke-width: 1; stroke-dasharray: none; stroke-linecap: butt; stroke-dashoffset: 0; stroke-linejoin: miter; stroke-miterlimit: 4; is-custom-font: none; font-file-url: none; fill: rgb(192,192,192); fill-rule: nonzero; opacity: 1;"  transform=" translate(-53.2646, -224.3561)" d="M 45.2884 232.626 l -3.10166 -5.42688 l 19.01835 -11.11293 c 1.07566 1.84659 2.08195 3.57412 3.13731 5.38585 Z" stroke-linecap="round" />
</g>
		<g transform="matrix(1 0 0 1 107.5844 -59.8763)" id="Layer_1"  >
<path style="stroke: none; stroke-width: 1; stroke-dasharray: none; stroke-linecap: butt; stroke-dashoffset: 0; stroke-linejoin: miter; stroke-miterlimit: 4; is-custom-font: none; font-file-url: none; fill: rgb(192,192,192); fill-rule: nonzero; opacity: 1;"  transform=" translate(-267.5844, -100.1237)" d="M 275.56452 91.88642 c 1.07864 1.87784 2.0608 3.58763 3.10882 5.4121 L 259.56711 108.361 c -1.03017 -1.82147 -2.015 -3.56272 -3.0717 -5.43122 Z" stroke-linecap="round" />
</g>
		<g transform="matrix(1 0 0 1 62.3667 109.216)" id="Layer_1"  >
<path style="stroke: none; stroke-width: 1; stroke-dasharray: none; stroke-linecap: butt; stroke-dashoffset: 0; stroke-linejoin: miter; stroke-miterlimit: 4; is-custom-font: none; font-file-url: none; fill: rgb(192,192,192); fill-rule: nonzero; opacity: 1;"  transform=" translate(-222.3667, -269.2161)" d="M 214.13 261.22387 l 5.41128 -3.12022 c 3.68242 6.34842 7.34868 12.669 11.06216 19.071 c -1.8268 1.07453 -3.5612 2.09471 -5.36191 3.15387 Z" stroke-linecap="round" />
</g>
		<g transform="matrix(1 0 0 1 -0.2292 125.3496)" style="" id="Layer_1"  >
		<text xml:space="preserve" font-family="WorkSans-Regular, Work Sans" font-size="42.23796081542969" font-style="normal" font-weight="normal" style="stroke: none; stroke-width: 1; stroke-dasharray: none; stroke-linecap: butt; stroke-dashoffset: 0; stroke-linejoin: miter; stroke-miterlimit: 4; is-custom-font: none; font-file-url: none; fill: rgb(192,192,192); fill-rule: nonzero; opacity: 1; white-space: pre;" ><tspan x="-10.5595" y="13.2686" >6</tspan></text>
</g>
		<g transform="matrix(1 0 0 1 0.1123 1.1665)" id="Layer_1"  >
<path style="stroke: none; stroke-width: 1; stroke-dasharray: none; stroke-linecap: butt; stroke-dashoffset: 0; stroke-linejoin: miter; stroke-miterlimit: 4; is-custom-font: none; font-file-url: none; fill: rgb(192,192,192); fill-rule: nonzero; opacity: 1;"  transform=" translate(-160.1123, -161.1664)" d="M 160.15421 166.08068 a 4.974 4.974 0 0 1 -4.972 -4.98306 a 4.93181 4.93181 0 0 1 9.85974 -0.08913 A 5.00607 5.00607 0 0 1 160.15421 166.08068 Z" stroke-linecap="round" />
</g>
		<g transform="matrix(1 0 0 1 -125.1677 4.8838)" style="" id="Layer_1"  >
		<text xml:space="preserve" font-family="WorkSans-Regular, Work Sans" font-size="42.23796081542969" font-style="normal" font-weight="normal" style="stroke: none; stroke-width: 1; stroke-dasharray: none; stroke-linecap: butt; stroke-dashoffset: 0; stroke-linejoin: miter; stroke-miterlimit: 4; is-custom-font: none; font-file-url: none; fill: rgb(192,192,192); fill-rule: nonzero; opacity: 1; white-space: pre;" ><tspan x="-10.5595" y="13.2686" >9</tspan></text>
</g>
		<g transform="matrix(1 0 0 1 122.8968 4.8838)" style="" id="Layer_1"  >
		<text xml:space="preserve" font-family="WorkSans-Regular, Work Sans" font-size="42.23796081542969" font-style="normal" font-weight="normal" style="stroke: none; stroke-width: 1; stroke-dasharray: none; stroke-linecap: butt; stroke-dashoffset: 0; stroke-linejoin: miter; stroke-miterlimit: 4; is-custom-font: none; font-file-url: none; fill: rgb(192,192,192); fill-rule: nonzero; opacity: 1; white-space: pre;" ><tspan x="-10.5595" y="13.2686" >3</tspan></text>
</g>
		<g transform="matrix(1 0 0 1 0.0984 -115.9609)" style="" id="Layer_1"  >
		<text xml:space="preserve" font-family="WorkSans-Regular, Work Sans" font-size="42.23796081542969" font-style="normal" font-weight="normal" style="stroke: none; stroke-width: 1; stroke-dasharray: none; stroke-linecap: butt; stroke-dashoffset: 0; stroke-linejoin: miter; stroke-miterlimit: 4; is-custom-font: none; font-file-url: none; fill: rgb(192,192,192); fill-rule: nonzero; opacity: 1; white-space: pre;" ><tspan x="-21.119" y="13.2686" >12</tspan></text>
</g>
</g>
</g>
</svg>